Simon Rattle leads the Berliner Philharmoniker and the City of Birmingham Symphony Chorus in this concert of Beethoven's Symphony No. 9 (Choral), with soloists Christiane Oelze (soprano), Birgit Remmert (mezzo), Jonas Kaufmann (tenor) and John Relyea (bass).

Format                                   : MPEG-4
Format profile                           : Base Media
Codec ID                                 : isom
File size                                : 797 MiB
Duration                                 : 1h 14mn
Overall bit rate                         : 1 502 Kbps
Writing application                      : Lavf53.13.0

Video
ID                                       : 1
Format                                   : AVC
Format/Info                              : Advanced Video Codec
Format profile                           : Main@L3.0
Format settings, CABAC                   : Yes
Format settings, ReFrames                : 4 frames
Codec ID                                 : avc1
Codec ID/Info                            : Advanced Video Coding
Duration                                 : 1h 14mn
Bit rate mode                            : Constant
Bit rate                                 : 1 404 Kbps
Width                                    : 832 pixels
Height                                   : 468 pixels
Display aspect ratio                     : 16:9
Frame rate mode                          : Constant
Frame rate                               : 25.000 fps
Standard                                 : PAL
Color space                              : YUV
Chroma subsampling                       : 4:2:0
Bit depth                                : 8 bits
Scan type                                : Progressive
Bits/(Pixel*Frame)                       : 0.144
Stream size                              : 743 MiB (93%)

Audio
ID                                       : 2
Format                                   : AAC
Format/Info                              : Advanced Audio Codec
Format profile                           : HE-AAC / LC
Codec ID                                 : 40
Duration                                 : 1h 14mn
Bit rate mode                            : Constant
Bit rate                                 : 96.0 Kbps
Channel(s)                               : 2 channels
Channel positions                        : Front: L R
Sampling rate                            : 48.0 KHz / 24.0 KHz
Compression mode                         : Lossy
Stream size                              : 50.2 MiB (6%)
